<svg height="512pt" viewBox="0 0 512.0005 512" width="512pt" xmlns="http://www.w3.org/2000/svg"><path d="m196 392c-8.285156 0-15 6.714844-15 15s6.714844 15 15 15h15v15c0 8.285156 6.714844 15 15 15s15-6.714844 15-15v-15h30v15c0 8.285156 6.714844 15 15 15s15-6.714844 15-15v-17.578125c17.460938-6.195313 30-22.867187 30-42.421875 0-11.515625-4.351562-22.03125-11.496094-30 7.144532-7.96875 11.496094-18.484375 11.496094-30 0-19.554688-12.539062-36.226562-30-42.417969v-17.582031c0-8.285156-6.714844-15-15-15s-15 6.714844-15 15v15h-30v-15c0-8.285156-6.714844-15-15-15s-15 6.714844-15 15v15h-15c-8.285156 0-15 6.714844-15 15s6.714844 15 15 15h15v90zm45-90h45c8.273438 0 15 6.730469 15 15s-6.726562 15-15 15h-45zm0 60h45c8.273438 0 15 6.730469 15 15s-6.726562 15-15 15h-45zm0 0"/><path d="m467 272c3.980469 0 7.792969-1.582031 10.605469-4.394531l30-30c5.859375-5.855469 5.859375-15.355469 0-21.210938-5.855469-5.859375-15.355469-5.859375-21.210938 0l-25.605469 25.605469h-39.789062v-45c0-8.285156-6.714844-15-15-15h-15v-47c0-74.4375-60.558594-135-135-135-74.4375 0-135 60.5625-135 135v47h-15c-8.285156 0-15 6.714844-15 15v45h-39.785156l-25.609375-25.605469c-5.855469-5.859375-15.355469-5.859375-21.210938 0-5.859375 5.859375-5.859375 15.355469 0 21.210938l30 30c2.8125 2.816406 6.628907 4.394531 10.605469 4.394531h46v30h-76c-8.285156 0-15 6.714844-15 15s6.714844 15 15 15h76v30h-76c-8.285156 0-15 6.714844-15 15s6.714844 15 15 15h76v30h-46c-3.976562 0-7.792969 1.582031-10.605469 4.394531l-30 30c-5.859375 5.859375-5.859375 15.355469 0 21.210938 5.855469 5.859375 15.355469 5.859375 21.214844 0l25.605469-25.605469h39.785156v45c0 8.285156 6.714844 15 15 15h300c8.285156 0 15-6.714844 15-15v-45h39.789062l25.605469 25.605469c5.855469 5.859375 15.355469 5.859375 21.210938 0 5.859375-5.855469 5.859375-15.355469 0-21.210938l-30-30c-2.8125-2.8125-6.625-4.394531-10.605469-4.394531h-46v-30h76c8.285156 0 15-6.714844 15-15s-6.714844-15-15-15h-76v-30h76c8.285156 0 15-6.714844 15-15s-6.714844-15-15-15h-76v-30zm-316-137c0-57.898438 47.101562-105 105-105s105 47.101562 105 105v47h-30v-47c0-41.355469-33.644531-75-75-75s-75 33.644531-75 75v47h-30zm150 0v47h-90v-47c0-24.8125 20.1875-45 45-45s45 20.1875 45 45zm90 347h-270v-270h270zm0 0"/><path d="m166 452c0 8.285156-6.714844 15-15 15s-15-6.714844-15-15 6.714844-15 15-15 15 6.714844 15 15zm0 0"/><path d="m166 242c0 8.285156-6.714844 15-15 15s-15-6.714844-15-15 6.714844-15 15-15 15 6.714844 15 15zm0 0"/><path d="m376 242c0 8.285156-6.714844 15-15 15s-15-6.714844-15-15 6.714844-15 15-15 15 6.714844 15 15zm0 0"/><path d="m376 452c0 8.285156-6.714844 15-15 15s-15-6.714844-15-15 6.714844-15 15-15 15 6.714844 15 15zm0 0"/></svg>