<?xml version="1.0"?>
<svg xmlns="http://www.w3.org/2000/svg" viewBox="0 0 64 64" width="512" height="512"><g id="Distributed-2" data-name="Distributed"><path d="M32,7a3,3,0,1,0,3,3A3,3,0,0,0,32,7Zm0,4a1,1,0,1,1,1-1A1,1,0,0,1,32,11Z"/><path d="M10,27a3,3,0,1,0-3-3A3,3,0,0,0,10,27Zm0-4a1,1,0,1,1-1,1A1,1,0,0,1,10,23Z"/><path d="M62,15H46a1,1,0,0,0-1,1v7H40a1,1,0,0,0-1,1V38.621L32.941,36.29A.966.966,0,0,0,33,36V19h7a1,1,0,0,0,1-1V2a1,1,0,0,0-1-1H24a1,1,0,0,0-1,1V18a1,1,0,0,0,1,1h7V36a.966.966,0,0,0,.059.29L25,38.621V24a1,1,0,0,0-1-1H19V16a1,1,0,0,0-1-1H2a1,1,0,0,0-1,1V32a1,1,0,0,0,1,1H18a1,1,0,0,0,1-1V25h4V39a1,1,0,0,0,.073.362l-4.432,1.7a1.762,1.762,0,0,0-.235.13A1,1,0,0,0,18,42V58a1,1,0,0,0,.706.956L31.688,62.95h0l.016.005a1,1,0,0,0,.588,0l.016-.005h0l12.982-3.994A1,1,0,0,0,46,58V42a1,1,0,0,0-.406-.8,1.762,1.762,0,0,0-.235-.13l-4.432-1.7A1,1,0,0,0,41,39V25h4v7a1,1,0,0,0,1,1H62a1,1,0,0,0,1-1V16A1,1,0,0,0,62,15ZM25,17V3H39V17ZM17,31H3V17H17ZM31,60.646,20,57.261V43.354l11,3.385Zm13-3.385L33,60.646V46.739l11-3.385ZM32,44.954,22.059,41.9,32,38.071,41.941,41.9ZM61,31H47V17H61Z"/><path d="M54,27a3,3,0,1,0-3-3A3,3,0,0,0,54,27Zm0-4a1,1,0,1,1-1,1A1,1,0,0,1,54,23Z"/><path d="M49,30h6a1,1,0,0,0,0-2H49a1,1,0,0,0,0,2Z"/><path d="M58,30h1a1,1,0,0,0,0-2H58a1,1,0,0,0,0,2Z"/></g></svg>
