<svg height="512pt" viewBox="0 0 512 512" width="512pt" xmlns="http://www.w3.org/2000/svg"><path d="m400 38.769531-112 64.613281v67.816407l-125.734375 72.570312-50.265625-29-112 64.613281v129.234376l112 64.613281 112-64.613281v-68l125.601562-72.457032 50.398438 29.070313 112-64.613281v-129.234376zm-296 411.382813-88-50.769532v-101.527343l88 50.761719zm-80-166.152344 88-50.769531 88 50.769531-88 50.769531zm184 115.382812-88 50.769532v-101.535156l88-50.761719zm16-77.238281v-42.761719l-45.726562-26.398437 109.726562-63.28125v42.914063l45.601562 26.304687zm168-48-26.398438-15.199219 14.398438-8.304687-8-13.855469-22.398438 12.917969-45.601562-26.320313v-42.910156l24-13.847656-8-13.824219-16 9.199219v-40.144531l88 50.761719zm-80-166.144531 88-50.769531 88 50.769531-88 50.769531zm184 115.382812-88 50.769532v-101.535156l88-50.761719zm0 0"/><path d="m276 353.078125 63.992188-36.9375 8 13.855469-63.992188 36.9375zm0 0"/><path d="m164 182 63.992188-36.941406 8 13.859375-63.992188 36.9375zm0 0"/><path d="m0 0h16v144h-16zm0 0"/><path d="m48 0h16v112h-16zm0 0"/><path d="m96 0h16v80h-16zm0 0"/><path d="m496 368h16v144h-16zm0 0"/><path d="m448 400h16v112h-16zm0 0"/><path d="m400 432h16v80h-16zm0 0"/></svg>