<svg height="512" viewBox="0 0 512 512" width="512" xmlns="http://www.w3.org/2000/svg"><g id="Out_line" data-name="Out line"><path d="m208 442.6665-88 36.667-88-36.667v-94.66626l84.92285 35.38453a8.003 8.003 0 0 0 6.1543 0l84.92285-35.38453v19.99976h16v-32a8.00125 8.00125 0 0 0 -4.92285-7.38477l-96-40a8.003 8.003 0 0 0 -6.1543 0l-96 40a8.00125 8.00125 0 0 0 -4.92285 7.38477v112a8.00125 8.00125 0 0 0 4.92285 7.38477l96 40a8.003 8.003 0 0 0 6.1543 0l96-40a8.00125 8.00125 0 0 0 4.92285-7.38477v-32h-16zm-88-138 75.2002 31.3335-75.2002 31.3335-75.2002-31.3335z"/><path d="m112 400h16v64h-16z"/><path d="m491.07715 328.61523-96-40a8.003 8.003 0 0 0 -6.1543 0l-96 40a8.00125 8.00125 0 0 0 -4.92285 7.38477v32h16v-19.99976l84.92285 35.38453a8.003 8.003 0 0 0 6.1543 0l84.92285-35.38453v94.66626l-88 36.667-88-36.667v-26.6665h-16v32a8.00125 8.00125 0 0 0 4.92285 7.38477l96 40a8.003 8.003 0 0 0 6.1543 0l96-40a8.00125 8.00125 0 0 0 4.92285-7.38477v-112a8.00125 8.00125 0 0 0 -4.92285-7.38477zm-99.07715 38.71827-75.2002-31.3335 75.2002-31.3335 75.2002 31.3335z"/><path d="m384 400h16v64h-16z"/><path d="m184 384h144v16h-144z"/><path d="m112 255.69525v16.30475h16v-16.30475a103.47307 103.47307 0 0 0 56-21.77545v14.0802h16v-29.62238a103.95732 103.95732 0 1 0 -88 37.31763zm8-191.69525a88 88 0 1 1 -88 88 88.09957 88.09957 0 0 1 88-88z"/><path d="m136 184h-32a8.00917 8.00917 0 0 1 -8-8h-16a24.02718 24.02718 0 0 0 24 24h8v16h16v-16h8a24.02718 24.02718 0 0 0 24-24v-8a24.02718 24.02718 0 0 0 -24-24h-32a8.00917 8.00917 0 0 1 -8-8v-8a8.00917 8.00917 0 0 1 8-8h32a8.00917 8.00917 0 0 1 8 8h16a24.02718 24.02718 0 0 0 -24-24h-8v-16h-16v16h-8a24.02718 24.02718 0 0 0 -24 24v8a24.02718 24.02718 0 0 0 24 24h32a8.00917 8.00917 0 0 1 8 8v8a8.00917 8.00917 0 0 1 -8 8z"/><path d="m40 256h16v16h-16z"/><path d="m40 288h16v16h-16z"/><path d="m184 264h16v16h-16z"/><path d="m408 152h-32a8.00917 8.00917 0 0 1 -8-8h-16a24.02718 24.02718 0 0 0 24 24h8v16h16v-16h8a24.02718 24.02718 0 0 0 24-24v-8a24.02718 24.02718 0 0 0 -24-24h-32a8.00917 8.00917 0 0 1 -8-8v-8a8.00917 8.00917 0 0 1 8-8h32a8.00917 8.00917 0 0 1 8 8h16a24.02718 24.02718 0 0 0 -24-24h-8v-16h-16v16h-8a24.02718 24.02718 0 0 0 -24 24v8a24.02718 24.02718 0 0 0 24 24h32a8.00917 8.00917 0 0 1 8 8v8a8.00917 8.00917 0 0 1 -8 8z"/><path d="m456 224h16v32h-16z"/><path d="m456 272h16v16h-16z"/><path d="m384 264h16v16h-16z"/><path d="m312 216h16v-14.0802a103.47231 103.47231 0 0 0 56 21.77545v24.30475h16v-24.30475a104.10975 104.10975 0 1 0 -88-37.31763zm80-184a88 88 0 1 1 -88 88 88.09957 88.09957 0 0 1 88-88z"/><path d="m312 232h16v16h-16z"/></g></svg>